<svg width="157" height="86" viewBox="0 0 157 86" fill="none" xmlns="http://www.w3.org/2000/svg">
<path d="M13.944 37.06H8.556V52H5.76V37.06H0.36V34.72H13.944V37.06ZM30.6529 34.72V52H27.8449V44.308H19.1689V52H16.3489V34.72H19.1689V42.28H27.8449V34.72H30.6529ZM45.5588 49.732L45.5468 52H34.7708V34.72H45.5468V36.988H37.5908V42.196H43.9508V44.392H37.5908V49.732H45.5588ZM57.6349 37.672C57.5469 37.816 57.4549 37.924 57.3589 37.996C57.2629 38.06 57.1429 38.092 56.9989 38.092C56.8469 38.092 56.6749 38.028 56.4829 37.9C56.2989 37.772 56.0669 37.632 55.7869 37.48C55.5149 37.32 55.1909 37.176 54.8149 37.048C54.4389 36.912 53.9909 36.844 53.4709 36.844C52.9909 36.844 52.5669 36.904 52.1989 37.024C51.8389 37.144 51.5349 37.312 51.2869 37.528C51.0389 37.744 50.8509 38 50.7229 38.296C50.6029 38.584 50.5429 38.9 50.5429 39.244C50.5429 39.684 50.6589 40.052 50.8909 40.348C51.1229 40.636 51.4269 40.884 51.8029 41.092C52.1869 41.3 52.6229 41.484 53.1109 41.644C53.5989 41.796 54.0949 41.96 54.5989 42.136C55.1109 42.312 55.6109 42.512 56.0989 42.736C56.5869 42.96 57.0189 43.244 57.3949 43.588C57.7789 43.932 58.0869 44.352 58.3189 44.848C58.5509 45.344 58.6669 45.948 58.6669 46.66C58.6669 47.428 58.5349 48.148 58.2709 48.82C58.0069 49.492 57.6229 50.08 57.1189 50.584C56.6229 51.08 56.0069 51.472 55.2709 51.76C54.5429 52.048 53.7109 52.192 52.7749 52.192C52.2229 52.192 51.6829 52.136 51.1549 52.024C50.6349 51.92 50.1349 51.772 49.6549 51.58C49.1829 51.38 48.7389 51.14 48.3229 50.86C47.9069 50.58 47.5349 50.268 47.2069 49.924L48.0229 48.58C48.0949 48.468 48.1869 48.38 48.2989 48.316C48.4109 48.252 48.5349 48.22 48.6709 48.22C48.8549 48.22 49.0589 48.308 49.2829 48.484C49.5069 48.652 49.7749 48.84 50.0869 49.048C50.4069 49.248 50.7909 49.436 51.2389 49.612C51.6869 49.78 52.2229 49.864 52.8469 49.864C53.8629 49.864 54.6469 49.616 55.1989 49.12C55.7589 48.624 56.0389 47.94 56.0389 47.068C56.0389 46.58 55.9229 46.184 55.6909 45.88C55.4589 45.568 55.1509 45.308 54.7669 45.1C54.3909 44.892 53.9589 44.716 53.4709 44.572C52.9829 44.428 52.4869 44.276 51.9829 44.116C51.4789 43.948 50.9829 43.756 50.4949 43.54C50.0069 43.316 49.5709 43.028 49.1869 42.676C48.8109 42.316 48.5069 41.876 48.2749 41.356C48.0429 40.828 47.9269 40.172 47.9269 39.388C47.9269 38.764 48.0469 38.16 48.2869 37.576C48.5349 36.992 48.8909 36.476 49.3549 36.028C49.8269 35.572 50.4069 35.208 51.0949 34.936C51.7829 34.664 52.5669 34.528 53.4469 34.528C54.4389 34.528 55.3469 34.684 56.1709 34.996C57.0029 35.308 57.7189 35.752 58.3189 36.328L57.6349 37.672ZM73.5924 37.06H68.2044V52H65.4084V37.06H60.0084V34.72H73.5924V37.06ZM82.8133 49.732C83.4773 49.732 84.0693 49.62 84.5893 49.396C85.1173 49.172 85.5613 48.86 85.9213 48.46C86.2893 48.06 86.5693 47.58 86.7613 47.02C86.9533 46.452 87.0493 45.824 87.0493 45.136V34.72H89.8453V45.136C89.8453 46.152 89.6813 47.092 89.3533 47.956C89.0333 48.82 88.5693 49.568 87.9613 50.2C87.3533 50.824 86.6133 51.316 85.7413 51.676C84.8773 52.028 83.9013 52.204 82.8133 52.204C81.7253 52.204 80.7453 52.028 79.8733 51.676C79.0093 51.316 78.2733 50.824 77.6653 50.2C77.0573 49.568 76.5893 48.82 76.2613 47.956C75.9413 47.092 75.7813 46.152 75.7813 45.136V34.72H78.5893V45.124C78.5893 45.812 78.6853 46.44 78.8773 47.008C79.0693 47.568 79.3453 48.052 79.7053 48.46C80.0653 48.86 80.5053 49.172 81.0253 49.396C81.5533 49.62 82.1493 49.732 82.8133 49.732ZM108.908 43.36C108.908 44.64 108.7 45.812 108.284 46.876C107.868 47.932 107.28 48.84 106.52 49.6C105.768 50.36 104.86 50.952 103.796 51.376C102.74 51.792 101.564 52 100.268 52H93.7395V34.72H100.268C101.564 34.72 102.74 34.932 103.796 35.356C104.86 35.772 105.768 36.36 106.52 37.12C107.28 37.88 107.868 38.792 108.284 39.856C108.7 40.912 108.908 42.08 108.908 43.36ZM106.04 43.36C106.04 42.368 105.904 41.476 105.632 40.684C105.368 39.892 104.984 39.224 104.48 38.68C103.984 38.136 103.38 37.72 102.668 37.432C101.956 37.136 101.156 36.988 100.268 36.988H96.5595V49.732H100.268C101.156 49.732 101.956 49.588 102.668 49.3C103.38 49.012 103.984 48.596 104.48 48.052C104.984 47.5 105.368 46.832 105.632 46.048C105.904 45.256 106.04 44.36 106.04 43.36ZM122.785 49.732L122.773 52H111.997V34.72H122.773V36.988H114.817V42.196H121.177V44.392H114.817V49.732H122.785ZM140.129 34.72V52H138.701C138.485 52 138.301 51.964 138.149 51.892C137.997 51.812 137.853 51.684 137.717 51.508L128.225 39.316C128.249 39.548 128.265 39.78 128.273 40.012C128.289 40.236 128.297 40.444 128.297 40.636V52H125.825V34.72H127.289C127.409 34.72 127.509 34.728 127.589 34.744C127.677 34.752 127.757 34.772 127.829 34.804C127.901 34.836 127.969 34.884 128.033 34.948C128.097 35.012 128.165 35.092 128.237 35.188L137.741 47.392C137.717 47.144 137.697 46.9 137.681 46.66C137.673 46.42 137.669 46.196 137.669 45.988V34.72H140.129ZM156.139 37.06H150.751V52H147.955V37.06H142.555V34.72H156.139V37.06Z" fill="black"/>
<rect x="36.2806" y="43" width="59" height="59" rx="22.5" transform="rotate(-45 36.2806 43)" stroke="black"/>
</svg>
