<svg width="21" height="21" viewBox="0 0 21 21" fill="none" xmlns="http://www.w3.org/2000/svg">
<circle cx="10.5" cy="10.5" r="10" stroke="black"/>
<path d="M14.5 10.5C14.5 13.3484 14.0042 15.9034 13.2224 17.7277C12.8311 18.6407 12.378 19.3476 11.9004 19.819C11.4249 20.2883 10.9522 20.5 10.5 20.5C10.0478 20.5 9.57511 20.2883 9.09961 19.819C8.62197 19.3476 8.16888 18.6407 7.77759 17.7277C6.99577 15.9034 6.5 13.3484 6.5 10.5C6.5 7.6516 6.99577 5.09658 7.77759 3.27234C8.16888 2.35933 8.62197 1.65241 9.09961 1.18102C9.57511 0.711738 10.0478 0.5 10.5 0.5C10.9522 0.5 11.4249 0.711738 11.9004 1.18102C12.378 1.65241 12.8311 2.35933 13.2224 3.27234C14.0042 5.09658 14.5 7.6516 14.5 10.5Z" stroke="black"/>
<line x1="1" y1="10.5" x2="20" y2="10.5" stroke="black"/>
</svg>
